<svg version="1.2" xmlns="http://www.w3.org/2000/svg" viewBox="0 0 1280 720" width="400" height="225"><style></style><path  d="m137.5 403.3q-0.1 4.2-0.7 6.2-0.5 2-2.1 2.9-1.5 0.9-4.9 0.9-4.2 0-6.4-1.8-2-1.9-2.7-5.1-0.7-3.3-0.7-8.8l0.1-3.2q0.1-1 0.1-3.1l-2.9-86.3q-2.4 0.3-6.3 0.9-11.5 1.6-16.9 1.6-5.1 0-7.5-2-2.5-2.1-2.5-6.5 0-8.2 3.7-11.4 3.6-3.3 9.2-3.3l45.1-0.5 17-1q4 0 6.3 3.2 2.5 3.2 2.5 7.9 0 2.3-1.4 5.5-1.3 3.2-3.4 5.5-2 2.4-4.2 2.4-1.6 0-4.9-2.3-1.6-1.1-2.9-1.7-1.2-0.6-2.4-0.6-11 0-16.3 0.7l3.1 87.4q1.5 8.8 2 12.5zm85.1 11.2q-11.3 0-21.3-8-9.9-7.9-15.9-20-5.9-12.2-5.9-24 0-18.7 6.4-30.8 6.6-12.1 16.8-17.5 10.4-5.6 22.4-5.6 12.8 0 22 6.6 9.2 6.6 14 18.8 5 12.1 5 28.5 0 14.9-6.2 26.8-6.1 11.9-16.2 18.5-10 6.7-21.1 6.7zm29.4-53q0-9.5-3.2-16.9-3.1-7.4-8.7-11.5-5.5-4.2-12.4-4.2-8.5 0-16.4 3.7-7.9 3.5-13 10.6-5 7.1-5 17 0 8.4 4.1 16.4 4.1 8 10.6 13 6.5 4.9 13.5 4.9 7.9 0 14.9-3.9 7.1-4 11.4-11.4 4.2-7.5 4.2-17.7zm106.1 9.3q0-17-5.4-29.4-5.4-12.5-20.6-12.5-4.5 0-10.4 2.7-5.8 2.7-11.3 7.4-5.4 4.6-8.9 10.2 0 3.6-0.2 12.2-0.2 8.2-0.2 11.3 0 3.3 0.4 6.5 0.5 3.1 1.3 7.7 0.7 3.5 1.1 7.2 0.5 3.6 0.5 6.9 0 6.1-1.4 9.2-1.3 3.1-6 3.1-4.6 0-7.3-2.6-2.8-2.6-2.6-10.4l0.4-42q-1.2-15.2-1.2-20.9v-3.2q0-9.4 1.9-17.3 1.8-7.8 5.8-7.8 8.2 0 8.2 14.1 0 2.2-0.7 8.9l-0.3 2.7q2.4-8.3 8.6-14.3 6.2-6 13.4-9 7.2-3.1 12.2-3.1 20.2 0 28.6 16.5 8.5 16.5 8.5 40.1 0 21.8-2 36-2.1 14.1-8.4 14.1-2.8 0-4.5-0.6-1.7-0.8-2.8-3.4-1.1-2.6-1.1-8.1 0-3.5 0.6-7 0.5-3.4 1.6-8.5 1.2-5.9 1.7-9.4 0.5-3.4 0.5-7.3zm117.7-62.5q2.1 0 3.4 2.6 1.4 2.6 1.4 5.6 0 2.5-1.2 4.8-1.1 2.4-5.5 9.6-0.5 0.5-0.8 1-0.2 0.5-0.4 0.8-1.9 3-3.8 5.7-4.6 6.9-8.1 12.8-3.4 5.9-7.3 14-0.8 1.8-8.6 16.9-13.1 25.4-21 43.2-7.8 17.7-7.8 27.7 0 4.7-2.1 8.7-2.1 4-5.2 4-1.7 0-4.4-1.9-2.5-2-4.5-4.8-1.9-2.7-1.9-5 0.1-5.7 4.5-17.8 4.5-12.1 9.2-20.3l8.7-17q-5.7-12.6-21.2-51.1l-7.3-18q-1.1-2.6-1.7-5.4-0.7-2.7-0.7-4.5 0.2-5.2 2.6-8.4 2.5-3.2 5.9-3.2 2.4 0 3.5 2 1.2 1.9 3 6.9 5 14 13 34.4 8 20.2 12.2 29.3l32-61.9q2.5-5.1 6.3-7.8 3.8-2.9 7.8-2.9zm90.8 105q-10.7 0-19.5-4.6-8.8-4.7-8.8-18.5 0-2.1 0.9-5.5 1.1-3.6 2.7-6.1 1.6-2.7 3.4-2.7 0.3 0 1.1 1.1 0.9 1 1.6 2.5 3.2 6.4 5.8 9.1 2.7 2.7 5.7 3.4 3 0.6 9.2 0.6 6.3 0 13.5-2.6 7.2-2.6 12-6.5 4.9-3.9 4.9-7.3 0-3.3-3.1-5.8-3.1-2.4-7.9-4.2-4.8-1.7-13.2-4-12.8-3.7-21.1-7-8.2-3.3-14.2-9.5-5.9-6.3-5.9-15.9 0-14.6 6.8-25.5 7-11 17.8-16.8 10.8-5.9 22.1-5.9 7.1 0 12.6 3.4 5.6 3.3 8.6 8.9 3.1 5.6 3.1 12 0 8.2-1.5 13.6-1.4 5.5-5.8 5.5-3 0-3.8-2.5-0.8-2.6-0.8-7.5 0-7.1-3.9-10-3.9-2.8-11.4-2.8-5.4 0-12.8 3.7-7.2 3.8-12.5 9.8-5.2 5.9-5.2 12.1 0 4 3.2 6.8 3.3 2.7 8.2 4.4 5 1.6 13.8 3.9 12.8 3.2 20.7 6.3 8.1 3 13.9 9.3 5.7 6.3 5.7 16.6 0 12.8-8.2 21.4-8.3 8.5-19.2 12.7-10.9 4.1-18.5 4.1zm69 31.2q0-15.9 2-115.8 3.2-7.3 9-11.8 5.9-4.6 12.5-6.5 6.6-2 12.5-2 15.7 0 27 5.7 11.2 5.6 17 15.5 5.9 9.8 5.9 22.2 0 18.4-6.1 32.3-6.1 13.9-17.4 21.5-11.3 7.5-26.4 7.5-5.3 0-9.4-0.6-4.2-0.6-11.1-2v8.8q0 7.8 1.1 19.6 1.1 11.6 1.1 19 0 4-2.8 6.5-2.8 2.4-5.9 2.4-4.4 0-6.3-2.4-1.9-2.4-2.3-6.5-0.4-4.3-0.4-13.4zm15.2-79.2q-0.2 3 0.1 12.8 0.4 9.8 0.7 13.2-0.2 0.9 4.6 1.2 4.8 0.3 9 0.3 11.2 0 20.5-4.1 9.5-4.1 15.1-12.6 5.7-8.6 5.7-21.1 0-13-9.3-19.7-9.3-6.8-25.8-6.8-3.7 0-8.4 1.2-4.7 1.2-8.1 3.4-3.5 2.2-3.5 5.1zm187.2 23.3q3.3 0 4.7 2.2 1.5 2.1 1.5 6.8 0 3.7-2.1 7.3-2 3.7-5.5 6-3.6 2.4-7.9 2.4-4.1 0-8.4-3-4.2-3.1-6.9-8.1-2.7-5-2.7-10.3-8 10.2-16.7 16.4-8.6 6.2-18.3 6.2-8.9 0-18.1-5.8-9.1-5.8-15-15.6-5.9-9.8-5.9-21.2 0-15.3 6.9-30 7-14.7 18.7-23.9 11.8-9.2 25.4-9.2 10.3 0 19.1 6.2 8.9 6.2 14 16.1 5.3 9.7 5.3 19.8 0 4.3-0.7 8.6-0.6 4.3-0.7 5.3-0.9 5.1-1.3 8.9-0.4 3.9-0.4 8.4 0 6.3 1.8 9.1 1.9 2.7 5.7 2.7 0.9 0 1.9-0.8 1.1-0.7 2.4-2.1 0.3-0.2 1.2-1.1 1.1-1 2-1.3zm-58.9 5.3q12.6 0 19.4-7 6.9-7 9.3-15.9 2.6-9 4.8-23.3 0-3.3-4-7.6-4-4.3-9.5-7.4-5.5-3.1-9.9-3.1-11 0-19.7 6.2-8.7 6.1-13.5 15.7-4.7 9.7-4.7 19.7 0 6.5 4 11.7 4.1 5.2 10.5 8.1 6.6 2.9 13.3 2.9zm87.7-63q-1.6 0-5.1 0.2-3.8 0.2-6.5 0.2-1.5 0-3.7-1.3-2.2-1.3-3.8-3.6-1.6-2.4-1.6-5.4 0-3 1.3-5.6 1.4-2.6 3.4-4.1 2.2-1.7 4.4-1.7 3.4 0 12.7 0.7 0.3-13.3 2.3-25.3 2.2-12 8.2-12 1.3 0 2.8 1.4 1.5 1.3 2.5 3.6 1.1 2.3 1.1 5 0 11.3-1.3 20.5l-0.3 2.7-1 4.4q3.9 0 9.1-0.1 5.3-0.1 8.1-0.2 8.5-0.3 17.1-0.3 3.1 0 4.5 3.7 1.4 3.7 1.4 7.8 0 4.5-2.4 7.2-2.2 2.6-4.9 2.6l-33-0.4-0.1 9.8q-0.3 9-0.3 19.5 0 14.9 2.4 23.5 2.6 8.6 9.8 8.6 6.1 0 15.1-6.6 1.9-1.1 2-1.1 2.7 0 3.7 1.5 0.9 1.5 0.9 5.2 0 4.5-3.6 9.6-3.6 5.1-8.7 8.6-5 3.6-8.8 3.6-12.1 0-18-8.5-5.8-8.6-7.3-20.5-1.3-11.9-1.6-30.8 0-14.9-0.8-22.4zm111.9 83.6q-11.3 0-21.3-8-9.9-7.9-15.9-20-5.9-12.2-5.9-24 0-18.7 6.4-30.8 6.5-12.1 16.8-17.6 10.4-5.5 22.4-5.5 12.8 0 22 6.6 9.2 6.6 14 18.8 5 12.1 5 28.5 0 14.9-6.2 26.8-6.2 11.9-16.2 18.5-10 6.7-21.1 6.7zm29.4-53q0-9.5-3.2-16.9-3.1-7.4-8.7-11.5-5.5-4.2-12.4-4.2-8.5 0-16.4 3.7-7.9 3.5-13 10.6-5 7.1-5 17 0 8.4 4.1 16.4 4.1 8 10.6 13 6.5 4.9 13.5 4.9 7.9 0 14.9-3.9 7.1-4 11.3-11.4 4.3-7.5 4.3-17.7zm69.5 26.1q2.9 0 4.4 3 1.6 3 1.6 7 0 4.2-2.6 7.6-2.5 3.5-6.1 5.4-3.6 1.9-6.5 1.9-10.5 0-15.4-6.7-4.8-6.8-4.7-19.9l1.4-117.5q0-7.1 1.9-11.4 2-4.4 6-4.4 2.7 0 4.4 3.2 1.9 3.2 1.9 6.8l-1.4 103v3.6q0 10.1 1.4 16.7 1.5 6.7 4.7 6.7 1.4 0 2.3-0.7 1-0.6 2.3-1.9 1.3-1.3 2.1-1.8 1-0.6 2.3-0.6zm115.2 1q3.3 0 4.7 2.2 1.5 2.1 1.5 6.8 0 3.7-2 7.3-2.1 3.7-5.6 6-3.6 2.4-7.8 2.4-4.2 0-8.5-3-4.2-3.1-6.9-8.1-2.6-5-2.6-10.3-8.1 10.2-16.8 16.4-8.5 6.2-18.3 6.2-8.9 0-18.1-5.8-9.1-5.8-15-15.6-5.9-9.8-5.9-21.2 0-15.3 7-30 6.9-14.7 18.6-23.9 11.8-9.2 25.4-9.2 10.3 0 19.1 6.2 8.9 6.2 14 16.1 5.3 9.7 5.3 19.8 0 4.3-0.7 8.6-0.6 4.3-0.7 5.3-0.9 5.1-1.3 8.9-0.4 3.9-0.4 8.4 0 6.3 1.8 9.1 1.9 2.7 5.7 2.7 0.9 0 1.9-0.8 1.1-0.7 2.5-2.1 0.2-0.2 1.2-1.1 1-1 1.9-1.3zm-58.9 5.3q12.6 0 19.4-7 6.9-7 9.4-15.9 2.5-9 4.7-23.3 0-3.3-4-7.6-3.9-4.3-9.5-7.4-5.5-3.1-9.9-3.1-11 0-19.7 6.2-8.7 6.1-13.5 15.7-4.7 9.7-4.7 19.7 0 6.5 4.1 11.7 4 5.2 10.5 8.1 6.5 2.9 13.2 2.9z"/></svg>