<svg version="1.2" xmlns="http://www.w3.org/2000/svg" viewBox="0 0 1280 720" width="200" height="113"><style></style><path  d="m546.5 416.3q-0.1 4.2-0.7 6.2-0.5 2-2.1 2.9-1.5 0.9-4.9 0.9-4.2 0-6.4-1.8-2-1.9-2.7-5.1-0.7-3.3-0.7-8.8l0.1-3.2q0.1-1 0.1-3.1l-2.9-86.3q-2.4 0.3-6.3 0.9-11.5 1.6-16.9 1.6-5.1 0-7.5-2-2.5-2.1-2.5-6.5 0-8.2 3.7-11.4 3.6-3.3 9.2-3.3l45.1-0.5 17-1q4 0 6.3 3.2 2.5 3.2 2.5 7.9 0 2.3-1.4 5.5-1.3 3.2-3.4 5.5-2 2.4-4.2 2.4-1.6 0-4.9-2.3-1.6-1.1-2.9-1.7-1.2-0.6-2.4-0.6-11 0-16.3 0.7l3.1 87.4q1.5 8.8 2 12.5zm54.1-83q3.1-8.7 9.7-17.9 6.7-9.2 15.6-15.5 8.9-6.3 18.2-6.3 9.1 0 17.4 4.3 8.2 4.2 13.4 12.5 5.1 8.3 5.1 19.8 0 3-1.1 6.6-0.9 3.6-3.1 6.3-2.1 2.6-5.1 2.6-2.5 0-3.7-1.4-1.1-1.4-1.6-3.5-0.3-2.2-0.6-6-0.4-6.5-1.7-10.6-1.2-4.3-5.6-7.3-4.4-3.1-13.3-3.1-12.1 0-20.8 11.2-8.6 11.3-12.9 26.2-4.4 14.8-4.4 24.4 0 9.4 5 16.4 5 7 13 10.6 8 3.6 16.6 3.6 7.7 0 17-1.1 9.3-1.3 15.1-3.9 3.9-3.6 5.7-5 1.9-1.5 2.8-1.5 3.4 0 5.5 3.1 2.1 3 2.1 7.6 0 7.5-7.5 12.3-7.4 4.7-18.1 6.8-10.6 2-20.8 2-21.9 0-36.4-11.1-14.5-11.2-14.5-39.5 0-10.1 2.4-20.1 2.3-10.1 6.6-22.5zm140.2 93q-10.7 0-19.5-4.6-8.8-4.7-8.8-18.5 0-2.1 0.9-5.5 1.1-3.6 2.7-6.1 1.6-2.7 3.4-2.7 0.3 0 1.1 1.1 0.9 1 1.6 2.5 3.2 6.4 5.8 9.1 2.7 2.7 5.7 3.4 3 0.6 9.2 0.6 6.3 0 13.5-2.6 7.2-2.6 12-6.5 4.9-3.9 4.9-7.3 0-3.3-3.1-5.8-3.1-2.4-7.9-4.2-4.8-1.7-13.2-4-12.8-3.7-21.1-7-8.2-3.3-14.2-9.5-5.9-6.3-5.9-15.9 0-14.6 6.8-25.5 7-11 17.8-16.8 10.8-5.9 22.1-5.9 7.1 0 12.6 3.4 5.6 3.3 8.6 8.9 3.1 5.6 3.1 12 0 8.2-1.5 13.6-1.4 5.5-5.8 5.5-3 0-3.8-2.5-0.8-2.6-0.8-7.5 0-7.1-3.9-10-3.9-2.8-11.4-2.8-5.4 0-12.8 3.7-7.2 3.8-12.5 9.8-5.2 5.9-5.2 12.1 0 4 3.2 6.8 3.3 2.7 8.2 4.4 5 1.6 13.8 3.9 12.8 3.2 20.7 6.3 8.1 3 13.9 9.3 5.7 6.3 5.7 16.6 0 12.8-8.2 21.4-8.3 8.5-19.2 12.7-10.9 4.1-18.5 4.1z"/></svg>