<svg version="1.2" xmlns="http://www.w3.org/2000/svg" viewBox="0 0 1280 720" width="150" height="84"><style>.a{fill:#ff304f}</style><path class="a" d="m556.1 410.2q-0.1 3.8-0.6 5.6-0.5 1.7-1.9 2.6-1.4 0.8-4.4 0.8-3.8 0-5.7-1.7-1.8-1.6-2.5-4.5-0.6-3-0.6-7.8l0.1-2.9q0.1-1 0.1-2.8l-2.6-77.1q-2.2 0.1-5.6 0.7-10.3 1.5-15.2 1.5-4.5 0-6.7-1.9-2.2-1.8-2.2-5.7 0-7.4 3.3-10.3 3.2-2.9 8.2-2.9l40.4-0.4 15.2-1q3.6 0 5.7 2.9 2.2 2.9 2.2 7.1 0 2-1.3 4.9-1.1 2.9-3 5-1.9 2.1-3.8 2.1-1.4 0-4.4-2-1.4-1.1-2.6-1.6-1-0.6-2.1-0.6-9.9 0-14.5 0.7l2.7 78.1q1.4 7.9 1.8 11.2zm48.4-74.2q2.7-7.8 8.7-16 5.9-8.3 13.9-13.8 7.9-5.7 16.3-5.7 8.1 0 15.5 3.8 7.4 3.8 12 11.3 4.6 7.3 4.6 17.6 0 2.7-1 5.9-0.9 3.3-2.8 5.7-1.9 2.3-4.6 2.3-2.2 0-3.2-1.3-1.1-1.2-1.5-3.1-0.3-1.9-0.5-5.4-0.4-5.7-1.6-9.5-1-3.8-5-6.5-3.9-2.8-11.8-2.8-10.9 0-18.6 10.1-7.7 10-11.6 23.4-4 13.2-4 21.8 0 8.5 4.5 14.7 4.5 6.2 11.6 9.5 7.2 3.2 14.9 3.2 6.9 0 15.2-1 8.4-1.2 13.5-3.5 3.5-3.2 5.1-4.5 1.8-1.3 2.5-1.3 3.1 0 4.9 2.8 1.9 2.6 1.9 6.8 0 6.7-6.7 11-6.6 4.2-16.2 6-9.5 1.8-18.6 1.8-19.5 0-32.6-9.9-12.9-10-12.9-35.3 0-9 2.1-18 2.1-9 6-20.1zm125.3 83.2q-9.6 0-17.4-4.2-7.9-4.2-7.9-16.5 0-1.9 0.9-4.9 0.9-3.2 2.4-5.5 1.4-2.4 3-2.4 0.2 0 1 1 0.8 0.9 1.4 2.3 2.9 5.6 5.2 8.1 2.4 2.4 5.1 3 2.7 0.6 8.2 0.6 5.7 0 12.1-2.3 6.4-2.4 10.7-5.9 4.4-3.4 4.4-6.5 0-3-2.7-5.2-2.8-2.2-7.1-3.7-4.3-1.6-11.8-3.7-11.5-3.2-18.9-6.2-7.4-3-12.7-8.5-5.3-5.6-5.3-14.2 0-13 6.1-22.8 6.2-9.9 15.9-15.1 9.7-5.2 19.8-5.2 6.3 0 11.3 3 5 3 7.6 8 2.8 5 2.8 10.7 0 7.3-1.3 12.2-1.3 4.9-5.2 4.9-2.7 0-3.4-2.2-0.7-2.3-0.7-6.7 0-6.4-3.6-8.9-3.4-2.6-10.1-2.6-4.8 0-11.4 3.3-6.5 3.4-11.2 8.7-4.7 5.3-4.7 10.9 0 3.6 2.8 6.1 3 2.4 7.4 3.9 4.4 1.5 12.4 3.5 11.4 2.9 18.5 5.6 7.2 2.7 12.3 8.4 5.2 5.6 5.2 14.8 0 11.4-7.4 19.1-7.3 7.7-17.1 11.4-9.8 3.7-16.6 3.7z"/></svg>