<svg version="1.2" xmlns="http://www.w3.org/2000/svg" viewBox="0 0 1280 720" width="300" height="169"><style>.a{fill:#ff304f}</style><path class="a" d="m189.1 399.2q-0.1 3.8-0.6 5.6-0.5 1.7-1.9 2.6-1.4 0.8-4.4 0.8-3.8 0-5.7-1.7-1.8-1.6-2.5-4.5-0.6-3-0.6-7.8l0.1-2.9q0.1-1 0.1-2.8l-2.6-77.1q-2.2 0.1-5.6 0.7-10.3 1.5-15.2 1.5-4.5 0-6.7-1.9-2.2-1.8-2.2-5.7 0-7.4 3.3-10.3 3.2-2.9 8.2-2.9l40.4-0.4 15.2-1q3.6 0 5.7 2.9 2.2 2.9 2.2 7.1 0 2-1.3 4.9-1.1 2.9-3 5-1.9 2.1-3.8 2.1-1.4 0-4.4-2-1.4-1.1-2.6-1.6-1-0.6-2.1-0.6-9.9 0-14.5 0.7l2.7 78.1q1.4 7.9 1.8 11.2zm76 10q-10 0-18.9-7.1-8.9-7.1-14.3-17.9-5.3-10.9-5.3-21.5 0-16.7 5.8-27.5 5.8-10.8 15-15.7 9.3-5 20-5 11.5 0 19.7 6 8.2 5.8 12.6 16.7 4.4 10.9 4.4 25.5 0 13.3-5.6 24-5.5 10.6-14.5 16.6-8.9 5.9-18.9 5.9zm26.4-47.3q0-8.6-2.9-15.2-2.7-6.6-7.7-10.2-5-3.8-11.2-3.8-7.5 0-14.6 3.3-7.1 3.1-11.6 9.5-4.5 6.3-4.5 15.2 0 7.5 3.6 14.7 3.7 7.1 9.5 11.6 5.9 4.4 12.1 4.4 7.1 0 13.3-3.6 6.3-3.5 10.2-10.1 3.8-6.7 3.8-15.8zm94.9 8.3q0-15.2-4.9-26.4-4.8-11.1-18.4-11.1-4 0-9.3 2.4-5.2 2.4-10.1 6.6-4.9 4.2-7.9 9.1 0 3.3-0.2 11-0.2 7.2-0.2 10 0 3 0.4 5.9 0.4 2.8 1.1 6.9 0.6 3 1 6.4 0.5 3.3 0.5 6.1 0 5.5-1.3 8.3-1.2 2.8-5.3 2.8-4.2 0-6.7-2.4-2.4-2.3-2.3-9.2l0.4-37.6q-1-13.6-1-18.7v-2.9q0-8.4 1.6-15.4 1.6-7 5.3-7 7.3 0 7.3 12.6 0 2-0.6 7.9l-0.3 2.5q2.1-7.5 7.7-12.8 5.5-5.4 11.9-8.1 6.5-2.8 11-2.8 18 0 25.6 14.8 7.5 14.7 7.5 35.8 0 19.6-1.8 32.2-1.8 12.7-7.5 12.7-2.5 0-4-0.6-1.5-0.7-2.5-3-0.9-2.4-0.9-7.3 0-3.1 0.4-6.2 0.5-3 1.5-7.6 1-5.3 1.5-8.4 0.5-3.1 0.5-6.5zm105.2-56q1.9 0 3.1 2.4 1.2 2.3 1.2 5 0 2.2-1 4.3-1.1 2.1-5 8.6-0.4 0.4-0.7 0.9-0.2 0.4-0.4 0.7-1.7 2.7-3.3 5.1-4.1 6.2-7.3 11.5-3.1 5.2-6.5 12.4-0.8 1.6-7.7 15.2-11.8 22.7-18.8 38.6-7 15.8-7 24.8 0 4.1-1.9 7.8-1.8 3.5-4.6 3.5-1.5 0-3.9-1.7-2.3-1.7-4-4.2-1.8-2.5-1.8-4.5 0.1-5.1 4.1-15.9 4-10.9 8.2-18.2l7.8-15.2q-5.1-11.3-19-45.7l-6.5-16.1q-1-2.3-1.6-4.8-0.5-2.5-0.5-4 0.2-4.7 2.3-7.6 2.2-2.9 5.2-2.9 2.1 0 3.2 1.9 1.1 1.7 2.7 6.1 4.4 12.5 11.6 30.7 7.2 18.2 10.9 26.3l28.6-55.4q2.3-4.5 5.6-7 3.5-2.6 7-2.6zm81.2 94q-9.6 0-17.5-4.2-7.8-4.2-7.8-16.5 0-1.9 0.8-4.9 1-3.2 2.4-5.5 1.5-2.4 3.1-2.4 0.2 0 1 1 0.7 0.9 1.4 2.3 2.9 5.6 5.2 8.1 2.4 2.4 5.1 3 2.6 0.6 8.2 0.6 5.7 0 12.1-2.3 6.4-2.4 10.7-5.9 4.4-3.4 4.4-6.5 0-3-2.8-5.2-2.7-2.2-7.1-3.7-4.3-1.6-11.7-3.7-11.5-3.2-18.9-6.2-7.4-3-12.8-8.5-5.2-5.6-5.2-14.2 0-13 6.1-22.8 6.2-9.9 15.9-15.1 9.7-5.2 19.7-5.2 6.4 0 11.4 3 4.9 3 7.6 8 2.8 5 2.8 10.7 0 7.3-1.3 12.2-1.3 4.9-5.2 4.9-2.7 0-3.5-2.2-0.6-2.3-0.6-6.7 0-6.4-3.6-8.9-3.4-2.6-10.1-2.6-4.8 0-11.4 3.3-6.6 3.4-11.3 8.7-4.7 5.3-4.7 10.9 0 3.6 2.9 6.1 3 2.4 7.4 3.9 4.4 1.5 12.4 3.5 11.4 2.9 18.5 5.6 7.1 2.7 12.3 8.4 5.2 5.6 5.2 14.8 0 11.4-7.4 19.1-7.4 7.7-17.1 11.4-9.8 3.7-16.6 3.7zm61.7 27.8q0-14.1 1.8-103.5 2.9-6.5 8.1-10.5 5.2-4.1 11.1-5.9 5.9-1.8 11.2-1.8 14.1 0 24.2 5.1 10 5.1 15.2 13.9 5.3 8.8 5.3 19.8 0 16.5-5.5 29-5.5 12.3-15.6 19.1-10.1 6.8-23.6 6.8-4.7 0-8.4-0.5-3.8-0.6-9.9-1.8v7.8q0 7 1 17.6 0.9 10.3 0.9 16.9 0 3.7-2.5 5.9-2.5 2.1-5.2 2.1-4 0-5.7-2.1-1.6-2.1-2-5.9-0.4-3.8-0.4-12zm13.6-70.8q-0.2 2.7 0.1 11.5 0.4 8.7 0.6 11.8-0.1 0.8 4.1 1.1 4.3 0.2 8.1 0.2 10 0 18.4-3.6 8.4-3.7 13.5-11.3 5-7.7 5-18.9 0-11.6-8.3-17.6-8.3-6.1-23.1-6.1-3.2 0-7.5 1.1-4.2 1.1-7.2 3.1-3.1 1.9-3.1 4.5zm167.3 20.9q3 0 4.2 1.9 1.4 1.9 1.4 6.1 0 3.3-1.8 6.5-1.9 3.3-5 5.4-3.2 2.1-7 2.1-3.8 0-7.6-2.7-3.7-2.8-6.1-7.2-2.4-4.5-2.4-9.2-7.2 9.1-15 14.7-7.6 5.5-16.4 5.5-7.9 0-16.2-5.2-8.1-5.2-13.4-13.9-5.2-8.8-5.2-19 0-13.7 6.2-26.8 6.2-13.2 16.7-21.4 10.5-8.2 22.7-8.2 9.2 0 17 5.5 8 5.6 12.6 14.4 4.7 8.7 4.7 17.7 0 3.9-0.6 7.7-0.6 3.8-0.7 4.8-0.7 4.5-1.1 7.9-0.4 3.5-0.4 7.5 0 5.7 1.6 8.2 1.8 2.4 5.1 2.4 0.9 0 1.7-0.7 1-0.7 2.2-1.9 0.2-0.2 1.1-1 1-0.9 1.7-1.1zm-52.6 4.7q11.2 0 17.3-6.3 6.2-6.2 8.4-14.2 2.3-8 4.2-20.8 0-3-3.5-6.9-3.6-3.8-8.6-6.6-4.9-2.7-8.8-2.7-9.9 0-17.6 5.5-7.8 5.5-12.1 14.1-4.2 8.6-4.2 17.5 0 5.9 3.6 10.6 3.7 4.6 9.4 7.2 5.9 2.6 11.9 2.6zm78.4-56.4q-1.4 0-4.5 0.2-3.5 0.2-5.9 0.2-1.3 0-3.3-1.2-1.9-1.1-3.4-3.2-1.4-2.1-1.4-4.8 0-2.7 1.2-5 1.2-2.4 3-3.7 1.9-1.5 3.9-1.5 3.1 0 11.4 0.6 0.2-11.9 2.1-22.6 1.9-10.7 7.2-10.7 1.3 0 2.6 1.2 1.4 1.1 2.2 3.3 1 2 1 4.4 0 10.1-1.2 18.4l-0.2 2.4-0.9 3.9q3.4 0 8.1-0.1 4.7-0.1 7.2-0.2 7.7-0.3 15.4-0.3 2.7 0 4 3.4 1.2 3.2 1.2 7 0 4-2.1 6.4-2 2.3-4.4 2.3l-29.5-0.4-0.1 8.8q-0.3 8.1-0.3 17.5 0 13.3 2.2 21 2.3 7.6 8.7 7.6 5.5 0 13.6-5.8 1.7-1.1 1.8-1.1 2.4 0 3.2 1.4 0.9 1.3 0.9 4.7 0 4-3.3 8.6-3.2 4.5-7.7 7.6-4.5 3.2-7.9 3.2-10.8 0-16.1-7.6-5.2-7.6-6.5-18.3-1.2-10.6-1.4-27.6 0-13.3-0.8-20zm100 74.8q-10 0-18.9-7.1-8.9-7.1-14.3-18-5.3-10.9-5.3-21.4 0-16.7 5.8-27.5 5.8-10.9 15-15.7 9.3-5 20-5 11.5 0 19.7 5.9 8.2 5.9 12.6 16.8 4.4 10.8 4.4 25.5 0 13.3-5.6 23.9-5.5 10.7-14.5 16.6-8.9 6-18.9 6zm26.4-47.4q0-8.5-2.9-15.1-2.7-6.6-7.7-10.3-5-3.7-11.1-3.7-7.6 0-14.7 3.2-7.1 3.2-11.6 9.5-4.5 6.4-4.5 15.3 0 7.4 3.6 14.6 3.7 7.1 9.5 11.6 5.9 4.4 12.1 4.4 7.1 0 13.3-3.5 6.3-3.6 10.2-10.2 3.8-6.7 3.8-15.8zm62.1 23.3q2.6 0 3.9 2.7 1.5 2.7 1.5 6.3 0 3.7-2.3 6.8-2.2 3.1-5.5 4.8-3.2 1.7-5.8 1.7-9.4 0-13.7-6-4.4-6-4.3-17.7l1.3-105.2q0-6.3 1.7-10.1 1.7-4 5.4-4 2.4 0 3.9 2.9 1.6 2.8 1.6 6.1l-1.2 92.1v3.2q0 9 1.2 15 1.4 5.9 4.3 5.9 1.2 0 2.1-0.6 0.8-0.5 2-1.7 1.1-1.1 1.9-1.6 0.9-0.6 2-0.6zm103 1q3 0 4.2 1.9 1.4 1.9 1.4 6.1 0 3.3-1.8 6.5-1.9 3.3-5 5.4-3.2 2.1-7 2.1-3.7 0-7.6-2.7-3.7-2.8-6.1-7.2-2.4-4.5-2.4-9.2-7.2 9.1-15 14.7-7.6 5.5-16.4 5.5-7.9 0-16.1-5.2-8.2-5.2-13.5-13.9-5.2-8.8-5.2-19 0-13.7 6.2-26.8 6.2-13.2 16.7-21.4 10.5-8.2 22.7-8.2 9.2 0 17 5.5 8 5.6 12.6 14.4 4.7 8.7 4.7 17.7 0 3.9-0.6 7.7-0.6 3.8-0.7 4.8-0.7 4.5-1.1 7.9-0.4 3.5-0.4 7.5 0 5.7 1.6 8.2 1.8 2.4 5.1 2.4 0.9 0 1.7-0.7 1-0.7 2.3-1.9 0.1-0.2 1-1 1-0.9 1.7-1.1zm-52.6 4.7q11.2 0 17.4-6.3 6.1-6.2 8.3-14.2 2.3-8 4.2-20.8 0-3-3.5-6.9-3.6-3.8-8.6-6.6-4.8-2.7-8.8-2.7-9.8 0-17.6 5.5-7.8 5.5-12.1 14.1-4.2 8.6-4.2 17.5 0 5.9 3.6 10.6 3.7 4.6 9.4 7.2 5.9 2.6 11.9 2.6z"/></svg>